<svg width="298" height="64" viewBox="0 0 298 64" fill="none" xmlns="http://www.w3.org/2000/svg">
<path d="M86.4844 40.5858C86.4844 41.4322 86.3052 42.1791 85.9467 42.8363C85.5882 43.4936 85.0903 44.0014 84.433 44.3599C83.7758 44.7184 83.0389 44.8977 82.1924 44.8977H78V51.0021H83.0787C84.9907 51.0021 86.7035 50.5739 88.2271 49.7175C89.7507 48.8611 90.9457 47.676 91.8121 46.1723C92.6784 44.6686 93.1166 42.9757 93.1166 41.0837V21.0178H86.4844V40.5858ZM104.34 38.7634H118.231V33.1569H104.34V26.7936H119.695V21.0178H97.8766V50.9921H120.123V45.2164H104.34V38.7734V38.7634ZM122.205 26.9629H131.087V50.9822H137.72V26.9629H146.562V21.0178H122.195V26.9729L122.205 26.9629ZM169.227 35.9651C168.71 35.6863 168.142 35.4772 167.554 35.3179C168.003 35.1884 168.431 35.0291 168.829 34.8299C169.925 34.2623 170.791 33.4656 171.408 32.4399C172.026 31.4142 172.344 30.2392 172.344 28.9048C172.344 27.3811 171.926 26.0169 171.1 24.8119C170.273 23.6169 169.108 22.6809 167.614 22.0037C166.12 21.3365 164.408 20.9979 162.496 20.9979H149.181V50.9722H162.755C164.766 50.9722 166.559 50.6237 168.142 49.9166C169.715 49.2096 170.94 48.2337 171.817 46.969C172.683 45.7143 173.121 44.2803 173.121 42.667C173.121 41.1833 172.783 39.8588 172.095 38.6837C171.408 37.5087 170.462 36.6025 169.237 35.9552L169.227 35.9651ZM155.624 26.0467H161.51C162.326 26.0467 163.043 26.1961 163.671 26.4849C164.298 26.7737 164.786 27.1919 165.135 27.7396C165.483 28.2774 165.662 28.9147 165.662 29.6417C165.662 30.3686 165.483 31.0557 165.135 31.6234C164.786 32.191 164.298 32.6192 163.671 32.9279C163.043 33.2366 162.326 33.386 161.51 33.386H155.624V26.0368V26.0467ZM165.762 44.1807C165.384 44.7483 164.846 45.1865 164.159 45.4952C163.462 45.8039 162.675 45.9533 161.769 45.9533H155.624V38.2655H161.769C162.655 38.2655 163.442 38.4348 164.139 38.7634C164.826 39.092 165.374 39.5501 165.752 40.1476C166.13 40.7451 166.33 41.4223 166.33 42.189C166.33 42.9558 166.14 43.6131 165.762 44.1807ZM195.358 38.873C197.021 38.0763 198.305 36.951 199.222 35.5071C200.138 34.0631 200.596 32.3901 200.596 30.4782C200.596 28.5662 200.148 26.9529 199.252 25.519C198.355 24.085 197.081 22.9796 195.438 22.1929C193.794 21.4062 191.892 21.0178 189.721 21.0178H176.597V50.9921H183.239V40.0779H187.561L193.645 50.9921H201.223L194.372 39.2713C194.711 39.1518 195.049 39.0223 195.368 38.873H195.358ZM193.207 32.7486C192.838 33.376 192.311 33.864 191.624 34.1926C190.936 34.5312 190.13 34.7005 189.204 34.7005H183.229V26.4052H189.204C190.13 26.4052 190.936 26.5745 191.624 26.9031C192.311 27.2318 192.838 27.7197 193.207 28.3371C193.575 28.9545 193.765 29.6915 193.765 30.5279C193.765 31.3644 193.575 32.1013 193.207 32.7287V32.7486ZM213.801 21.0178L203.095 50.9921H209.837L211.958 44.3799H223.072L225.342 50.9921H231.954L220.99 21.0178H213.801ZM213.462 39.3609L216.907 28.7853L217.316 26.8633L217.724 28.7853L221.409 39.3609H213.462ZM234.155 50.9921H241.006V21.0178H234.155V50.9921ZM265.175 41.2928L252.279 21.0178H245.816V50.9921H251.871V30.7172L264.697 50.9921H271.23V21.0178H265.175V41.2928ZM296.703 37.9369C296.056 36.6921 295.139 35.6465 293.974 34.8C292.809 33.9536 291.465 33.3959 289.951 33.1071L284.853 32.0615C284.056 31.8723 283.419 31.5437 282.951 31.0657C282.482 30.5877 282.243 29.9902 282.243 29.2832C282.243 28.6359 282.413 28.0782 282.761 27.6002C283.1 27.1222 283.588 26.7538 284.205 26.4849C284.823 26.216 285.54 26.0866 286.356 26.0866C287.173 26.0866 287.91 26.226 288.537 26.5048C289.164 26.7836 289.652 27.172 290.001 27.6799C290.35 28.1878 290.529 28.7554 290.529 29.4027H297.171C297.131 27.66 296.643 26.1164 295.727 24.782C294.811 23.4377 293.526 22.3921 291.893 21.6352C290.26 20.8784 288.388 20.5 286.296 20.5C284.205 20.5 282.353 20.8884 280.73 21.6751C279.107 22.4618 277.832 23.5472 276.926 24.9414C276.02 26.3355 275.562 27.9189 275.562 29.7014C275.562 31.1454 275.85 32.4499 276.438 33.605C277.025 34.7702 277.852 35.7361 278.917 36.5029C279.993 37.2697 281.228 37.8074 282.642 38.1062L288.039 39.2215C288.925 39.4306 289.623 39.819 290.14 40.3766C290.658 40.9343 290.907 41.6214 290.907 42.4579C290.907 43.1251 290.718 43.7326 290.34 44.2604C289.961 44.7881 289.433 45.1964 288.756 45.4852C288.079 45.774 287.282 45.9134 286.366 45.9134C285.45 45.9134 284.584 45.7541 283.837 45.4354C283.09 45.1168 282.512 44.6587 282.104 44.0612C281.686 43.4737 281.487 42.7865 281.487 42.0198H274.845C274.874 43.8919 275.372 45.535 276.358 46.969C277.334 48.393 278.678 49.5084 280.391 50.305C282.104 51.1017 284.066 51.5 286.277 51.5C288.487 51.5 290.479 51.0917 292.192 50.2751C293.915 49.4586 295.249 48.3333 296.215 46.8993C297.181 45.4653 297.659 43.8421 297.659 42.0297C297.659 40.5459 297.33 39.1817 296.683 37.9269L296.703 37.9369Z" fill="white"/>
<path d="M20.34 3.66L3.66 20.34C1.32 22.68 0 25.86 0 29.18V59C0 61.76 2.24 64 5 64H34.82C38.14 64 41.31 62.68 43.66 60.34L60.34 43.66C62.68 41.32 64 38.14 64 34.82V5C64 2.24 61.76 0 59 0H29.18C25.86 0 22.69 1.32 20.34 3.66Z" fill="white"/>
<path d="M48 16H8V56H48V16Z" fill="black"/>
<path d="M30 47H13V51H30V47Z" fill="white"/>
</svg>
